# Blender v2.63 (sub 0) OBJ File: 'weapon.blend'
# www.blender.org
mtllib weapon_000023.mtl
o Cube
v 0.460595 -1.086921 -0.151561
v 0.460595 -1.086921 0.151561
v -1.076995 0.494526 0.151561
v -1.076994 0.494525 -0.151561
v 1.069888 -0.494526 -0.151561
v 1.069887 -0.494525 0.151561
v -0.467702 1.086921 0.151561
v -0.467702 1.086921 -0.151561
vn -0.716979 -0.697095 -0.000000
vn 0.716979 0.697095 0.000000
vn 0.697095 -0.716978 0.000002
vn -0.000000 0.000000 1.000000
vn -0.697095 0.716978 -0.000001
vn 0.000000 0.000000 -1.000000
usemtl Material
s off
f 1//1 2//1 3//1 4//1
f 5//2 8//2 7//2 6//2
f 1//3 5//3 6//3 2//3
f 2//4 6//4 7//4 3//4
f 3//5 7//5 8//5 4//5
f 5//6 1//6 4//6 8//6
